<?xml version="1.0" encoding="UTF-8"?>
<!-- Jyotish Stack AI — "Jyot Chakra" Icon Mark -->
<!-- Copyright © 2026 Jyotish Stack AI. All rights reserved. -->
<!-- High-resolution vector — infinitely scalable (SVG) -->
<svg xmlns="http://www.w3.org/2000/svg" viewBox="0 0 512 512" width="512" height="512">
  <defs>
    <radialGradient id="bg" cx="40%" cy="35%" r="70%" gradientUnits="objectBoundingBox">
      <stop offset="0%"   stop-color="#1E2348"/>
      <stop offset="55%"  stop-color="#0E1228"/>
      <stop offset="100%" stop-color="#060810"/>
    </radialGradient>
    <linearGradient id="gd" x1="0%" y1="0%" x2="100%" y2="100%">
      <stop offset="0%"   stop-color="#F8E878"/>
      <stop offset="42%"  stop-color="#D4AF37"/>
      <stop offset="100%" stop-color="#8B6A14"/>
    </linearGradient>
    <linearGradient id="gd2" x1="100%" y1="0%" x2="0%" y2="100%">
      <stop offset="0%"   stop-color="#F2DC58"/>
      <stop offset="100%" stop-color="#C49A28"/>
    </linearGradient>
    <radialGradient id="gw" cx="50%" cy="40%" r="50%">
      <stop offset="0%"   stop-color="rgba(212,175,55,0.35)"/>
      <stop offset="60%"  stop-color="rgba(212,175,55,0.08)"/>
      <stop offset="100%" stop-color="rgba(212,175,55,0)"/>
    </radialGradient>
    <radialGradient id="fl" cx="50%" cy="22%" r="60%" gradientUnits="objectBoundingBox">
      <stop offset="0%"   stop-color="#FFFDE8"/>
      <stop offset="28%"  stop-color="#F8DE40"/>
      <stop offset="68%"  stop-color="#D4A020"/>
      <stop offset="100%" stop-color="#9A6410"/>
    </radialGradient>
    <filter id="fg" x="-120%" y="-120%" width="340%" height="340%">
      <feGaussianBlur stdDeviation="16" result="blur"/>
      <feColorMatrix in="blur" type="matrix"
        values="1 0.7 0 0 0.15  0.7 0.5 0 0 0.08  0 0 0 0 0  0 0 0 1 0" result="c"/>
      <feMerge><feMergeNode in="c"/><feMergeNode in="SourceGraphic"/></feMerge>
    </filter>
    <filter id="rg" x="-8%" y="-8%" width="116%" height="116%">
      <feGaussianBlur stdDeviation="2.5" result="blur"/>
      <feMerge><feMergeNode in="blur"/><feMergeNode in="SourceGraphic"/></feMerge>
    </filter>
  </defs>

  <!-- Background disc -->
  <circle cx="256" cy="256" r="255" fill="#020308" opacity=".5"/>
  <circle cx="256" cy="256" r="248" fill="url(#bg)"/>

  <!-- Star field -->
  <g fill="rgba(240,210,60,0.48)">
    <circle cx="76"  cy="88"  r="1.3"/><circle cx="158" cy="42"  r="0.9"/>
    <circle cx="338" cy="36"  r="1.4"/><circle cx="415" cy="74"  r="0.8"/>
    <circle cx="456" cy="148" r="1.2"/><circle cx="466" cy="342" r="1.1"/>
    <circle cx="418" cy="432" r="0.8"/><circle cx="308" cy="472" r="1.3"/>
    <circle cx="188" cy="476" r="0.9"/><circle cx="80"  cy="420" r="1.2"/>
    <circle cx="42"  cy="314" r="1.0"/><circle cx="48"  cy="178" r="1.1"/>
    <circle cx="198" cy="56"  r="0.7"/><circle cx="438" cy="238" r="1.0"/>
    <circle cx="130" cy="120" r="0.8"/><circle cx="380" cy="130" r="0.9"/>
  </g>

  <!-- Outer border ring -->
  <circle cx="256" cy="256" r="244" fill="none" stroke="url(#gd)" stroke-width="2.5" opacity=".75"/>

  <!-- 12 zodiac dots at r=222 — cardinal (r=8) and non-cardinal (r=6) -->
  <circle cx="256" cy="34"  r="8"   fill="url(#gd)"/>
  <circle cx="367" cy="64"  r="6"   fill="url(#gd)" opacity=".85"/>
  <circle cx="448" cy="145" r="6"   fill="url(#gd)" opacity=".85"/>
  <circle cx="478" cy="256" r="8"   fill="url(#gd)"/>
  <circle cx="448" cy="367" r="6"   fill="url(#gd)" opacity=".85"/>
  <circle cx="367" cy="448" r="6"   fill="url(#gd)" opacity=".85"/>
  <circle cx="256" cy="478" r="8"   fill="url(#gd)"/>
  <circle cx="145" cy="448" r="6"   fill="url(#gd)" opacity=".85"/>
  <circle cx="64"  cy="367" r="6"   fill="url(#gd)" opacity=".85"/>
  <circle cx="34"  cy="256" r="8"   fill="url(#gd)"/>
  <circle cx="64"  cy="145" r="6"   fill="url(#gd)" opacity=".85"/>
  <circle cx="145" cy="64"  r="6"   fill="url(#gd)" opacity=".85"/>

  <!-- 6 kundli cross-lines (very faint) -->
  <g stroke="url(#gd)" stroke-width="0.5" opacity=".11">
    <line x1="256" y1="34"  x2="256" y2="478"/>
    <line x1="478" y1="256" x2="34"  y2="256"/>
    <line x1="448" y1="145" x2="64"  y2="367"/>
    <line x1="448" y1="367" x2="64"  y2="145"/>
    <line x1="367" y1="64"  x2="145" y2="448"/>
    <line x1="367" y1="448" x2="145" y2="64"/>
  </g>

  <!-- Main ring r=210 -->
  <circle cx="256" cy="256" r="210" fill="none" stroke="url(#gd)" stroke-width="3.5" filter="url(#rg)"/>

  <!-- Inner frame ring r=175 -->
  <circle cx="256" cy="256" r="175" fill="none" stroke="url(#gd)" stroke-width="1.8" opacity=".65"/>

  <!-- Shatkona (sacred hexagram) r=160
       T1 up:   (256,96)(394.6,336)(117.4,336)
       T2 down: (256,416)(394.6,176)(117.4,176) -->
  <polygon points="256,96 394.6,336 117.4,336"
    fill="rgba(212,175,55,0.10)" stroke="url(#gd)"  stroke-width="3" opacity=".95"/>
  <polygon points="256,416 394.6,176 117.4,176"
    fill="rgba(212,175,55,0.10)" stroke="url(#gd2)" stroke-width="3" opacity=".95"/>

  <!-- Inner-hexagon accent dots at r=92.4 (160/√3)
       0°(348.4,256) 60°(302.2,336) 120°(209.8,336)
       180°(163.6,256) 240°(209.8,176) 300°(302.2,176) -->
  <g fill="url(#gd)" opacity=".85">
    <circle cx="348.4" cy="256" r="5"/>
    <circle cx="302.2" cy="336" r="5"/>
    <circle cx="209.8" cy="336" r="5"/>
    <circle cx="163.6" cy="256" r="5"/>
    <circle cx="209.8" cy="176" r="5"/>
    <circle cx="302.2" cy="176" r="5"/>
  </g>

  <!-- Inner ring r=88 -->
  <circle cx="256" cy="256" r="88" fill="none" stroke="url(#gd)" stroke-width="1.5" opacity=".5"/>

  <!-- Central glow -->
  <circle cx="256" cy="256" r="108" fill="url(#gw)"/>

  <!-- Jyot Flame — tip y=170, base y=315 -->
  <path d="
    M 256 315
    C 226 294 215 264 235 234
    C 246 217 256 204 256 170
    C 256 204 266 217 277 234
    C 297 264 286 294 256 315 Z
  " fill="url(#fl)" filter="url(#fg)"/>
  <path d="
    M 256 304
    C 242 288 236 268 248 248
    C 253 235 256 224 256 198
    C 256 224 259 235 264 248
    C 276 268 270 288 256 304 Z
  " fill="rgba(255,254,232,0.90)"/>
  <circle cx="256" cy="200" r="5" fill="white" opacity=".80"/>
</svg>
